<?xml version="1.0" encoding="utf-8"?>
<!-- Generator: Adobe Illustrator 17.1.0, SVG Export Plug-In . SVG Version: 6.00 Build 0)  -->
<!DOCTYPE svg PUBLIC "-//W3C//DTD SVG 1.1//EN" "http://www.w3.org/Graphics/SVG/1.1/DTD/svg11.dtd">
<svg version="1.1" id="Ebene_1" xmlns="http://www.w3.org/2000/svg" xmlns:xlink="http://www.w3.org/1999/xlink" x="0px" y="0px"
	 viewBox="0 0 108 83" enable-background="new 0 0 108 83" xml:space="preserve">
<g>
	<polygon fill="#FFFFFF" points="102.4,4 31.7,4 25,23.5 14.6,23.5 6,48.4 16.4,48.4 5.9,78.8 76.6,78.8 78.5,73.4 78.5,73.4 
		88.9,73.4 97.5,48.4 87.1,48.4 	"/>
	<path fill="#E30018" d="M102.4,4L87.1,48.4h-1.2l14.9-43.2H32.5l-6.3,18.3h64l-8.6,24.9h-64l-10,29.1h68.2l1.4-4.2h1.2l-1.9,5.4
		H5.9l10.5-30.3H6l8.6-24.9H25L31.7,4C31.7,4,102.4,4,102.4,4z M65.5,26.1l-6.8,19.7h8.5l6.8-19.7H65.5z M74.1,38.2
		c10.8,0,15-12,4.1-12L74.1,38.2z M14.1,34.5l9.5-7.2l-6.4,18.6h8.1l6.4-18.6l4.6,7.1l2.9-8.3H17L14.1,34.5z M48,26.1l-6.8,19.7h8.5
		l6.8-19.7H48z"/>
	<path fill="#1A1A18" d="M78.6,9.2l-3.5,10.1h-4.4l2.4-7.1c-2.1,2.7-4,4.9-6,7.1h-2.8c-0.4-2.2-0.8-4.5-1.1-7.1l-2.5,7.1h-3.5
		l3.5-10.1h6c0.3,1.9,0.7,3.9,0.8,6.2c1.8-2.4,3.4-4.3,5.1-6.2L78.6,9.2L78.6,9.2z M58.1,9.2l-0.7,1.9H53l-0.7,2h4.4L56,15h-4.4
		l-0.8,2.5h5.4l-0.7,1.9h-9.8l3.5-10.1L58.1,9.2L58.1,9.2z M31.8,19.4l3.5-10.1h6.5c3.4,0,4.9,1,4.4,2.7c-0.5,1.6-2,2.5-3.5,2.9
		l1.7,4.5h-4.7l-1-3.8h-1.1l-1.3,3.8L31.8,19.4L31.8,19.4z M39.1,11.1l-0.9,2.5h1.3c1.2,0,2-0.7,2.2-1.2c0.3-1-0.5-1.2-1.4-1.2H39.1
		z M13.2,73.4l8.6-24.9h75.7l-8.6,24.9H13.2z M72.2,51l-6.8,19.7H74L80.7,51H72.2z M80.8,63.2c10.8,0,15-12,4.1-12L80.8,63.2z
		 M61.2,51.1l-6.8,19.7c4.9-1.1,9.7-5.1,11.4-9.9C67.5,56.1,65.5,52.1,61.2,51.1 M45.6,60.9c-1.7,4.8,0.4,8.8,4.6,9.9l6.8-19.7
		C52,52.1,47.2,56.1,45.6,60.9 M21.6,59.4l9.3-7.2l-6.4,18.6h8.1L39,52.2l4.9,7.2l2.8-8.3H24.5L21.6,59.4z M85.9,9.2h3.7l2.1,10.1
		H87l-0.3-2.4h-4.5l-2.2,2.4h-3.4L85.9,9.2z M83.5,15.3h3.1c-0.1-1.2-0.1-2.2-0.2-3.6C85.3,13.2,84.4,14.1,83.5,15.3"/>
</g>
</svg>
