<?xml version="1.0" encoding="UTF-8"?>
<!DOCTYPE svg PUBLIC "-//W3C//DTD SVG 1.1//EN" "http://www.w3.org/Graphics/SVG/1.1/DTD/svg11.dtd">
<!-- Creator: CorelDRAW X6 -->
<svg xmlns="http://www.w3.org/2000/svg" xml:space="preserve" width="172.527mm" height="72.9576mm" version="1.1" style="shape-rendering:geometricPrecision; text-rendering:geometricPrecision; image-rendering:optimizeQuality; fill-rule:evenodd; clip-rule:evenodd"
viewBox="0 0 16650 7041"
 xmlns:xlink="http://www.w3.org/1999/xlink">
 <defs>
  <style type="text/css">
   <![CDATA[
    .fil0 {fill:#E31E24}
    .fil1 {fill:#E20613}
    .fil2 {fill:#E20613;fill-rule:nonzero}
   ]]>
  </style>
 </defs>
 <g id="Слой_x0020_1">
  <metadata id="CorelCorpID_0Corel-Layer"/>
  <path class="fil0" d="M1706 4349c-322,10 -590,-71 -740,-353l-844 -1374c-144,-177 -126,-653 -24,-842 5,-9 10,-18 16,-26l858 -1396c122,-234 322,-342 586,-344l1786 0c268,4 458,104 569,302l652 1190 -598 0 -273 0 -121 0c-208,-360 -587,-600 -1019,-600 -658,0 -1191,556 -1191,1242 0,686 533,1242 1191,1242 393,0 741,-198 958,-504l0 1459 -1806 4zm8631 -2438l2586 0 0 519 -1344 0c-141,11 -223,81 -265,189l0 249 1429 0 0 436 -1429 0 0 490 1585 0 0 551 -2562 0 0 -2434zm2380 178c19,0 35,16 35,35 0,19 -16,34 -35,34l-2125 3 -5 2046c0,19 -16,35 -35,35 -19,0 -35,-16 -35,-35l5 -2081c0,-19 16,-34 35,-34l2160 -3zm1266 -178l0 928 705 -690c205,-237 618,-233 795,-238l593 0 -1079 1026c-100,96 -112,192 8,288l1627 1120 -1565 0 -1094 -886 10 886 -904 0 0 -2434 904 0zm216 1103c-12,13 -32,13 -45,0 -12,-12 -12,-32 0,-45l700 -710c2,-1 3,-3 5,-4 168,-183 572,-175 861,-169l10 0c17,1 31,15 31,33 0,17 -15,31 -32,31l-10 -1c-288,-5 -603,-25 -809,147l-1 0 -10 8 -700 710zm-342 -924c19,0 35,15 35,34 0,20 -16,35 -35,35l-530 3 -5 2046c0,19 -15,34 -35,34 -19,0 -34,-15 -34,-34l5 -2081c0,-19 15,-35 34,-35l565 -2zm-6596 -171l2911 0 0 491 -1543 0c-328,30 -336,170 -336,444l553 0c529,0 1346,22 1346,776 0,628 -719,715 -1155,715l-1776 0 0 -2426zm2701 171c19,0 35,15 35,34 0,20 -16,35 -35,35l-2356 3 -4 2045c0,20 -16,35 -35,35 -19,0 -35,-15 -35,-35l5 -2080c0,-19 16,-35 35,-35l2390 -2zm-753 1497c18,230 -215,251 -339,247l-554 0 0 -247 0 -247 554 0c124,-5 357,17 339,247zm-5519 758l477 0c323,-3 569,-99 762,-257l1138 -1086 0 1343 1009 0 0 -2429 -682 0c-202,-13 -390,54 -555,217l-1172 1117 0 -1334 -977 0 0 2429zm992 -674c-14,13 -36,12 -49,-2 -14,-14 -13,-36 1,-49 374,-349 647,-616 857,-822 248,-245 419,-408 559,-515l3 -2c125,-95 189,-142 297,-167 105,-24 224,-25 475,-24 19,0 34,16 34,35 0,19 -15,35 -34,35 -245,-1 -361,-1 -460,22 -95,22 -154,66 -272,155l0 1c-138,104 -307,267 -553,509 -211,208 -485,476 -858,824zm-1682 -334c17,-7 37,1 44,17 7,17 -1,37 -17,44 -78,34 -152,57 -229,72 -77,14 -156,20 -245,20l0 0 0 0c-360,0 -685,-150 -921,-394 -235,-243 -380,-578 -380,-949l0 0 0 0 0 0 0 0c0,-371 145,-706 380,-949 236,-244 561,-394 921,-394l0 0 0 0 0 0 0 0c101,0 200,12 294,34 14,3 29,7 46,12 78,22 153,51 224,86l0 0c30,15 59,31 87,48 1,0 1,1 2,1 28,17 55,35 81,53 138,97 257,222 350,366 10,15 5,36 -10,46 -15,10 -36,5 -46,-10 -88,-137 -201,-255 -332,-348 -26,-18 -52,-35 -77,-50 -1,0 -1,-1 -2,-1 -27,-16 -54,-31 -82,-45l0 0c-68,-34 -139,-61 -213,-82 -13,-4 -28,-7 -44,-11 -89,-22 -183,-33 -278,-33l0 0 0 0 0 0 0 0c-341,0 -650,143 -873,374 -224,231 -362,550 -362,903l0 0 0 0 0 0 0 0c0,353 138,672 362,903 223,231 532,374 873,374l0 0 0 0c85,0 161,-6 233,-19 72,-14 141,-36 214,-68z"/>
  <path class="fil1" d="M1703 4363c-320,9 -587,-71 -738,-355l-844 -1386c-142,-178 -124,-658 -27,-845 9,-9 9,-17 18,-26l862 -1404c125,-240 320,-347 587,-347l1786 0c267,0 462,107 569,302l648 1200 -595 0 -275 0 -125 0c-204,-365 -586,-604 -1022,-604 -657,0 -1191,559 -1191,1253 0,693 534,1253 1191,1253 391,0 738,-196 960,-507l0 1457 -1804 9 0 0zm8638 -2452l2586 0 0 524 -1342 0c-142,9 -222,80 -267,187l0 248 1431 0 0 436 -1431 0 0 489 1582 0 0 559 -2559 0 0 -2443 0 0zm2381 177c18,0 36,18 36,36 0,18 -18,35 -36,35l-2124 0 -9 2062c0,18 -17,36 -35,36 -18,0 -36,-18 -36,-36l9 -2088c0,-18 18,-36 36,-36l2159 -9 0 0zm1262 -177l0 933 702 -693c205,-240 622,-232 791,-240l595 0 -1075 1030c-98,98 -115,196 9,294l1626 1119 -1564 0 -1093 -888 9 888 -906 0 0 -2443 906 0 0 0zm222 1102c-9,8 -35,8 -44,0 -9,-9 -9,-36 0,-45l702 -711c0,0 0,0 9,0 169,-186 569,-178 862,-169l9 0c17,0 35,18 35,36 0,18 -18,35 -35,35l-9 0c-285,-8 -604,-26 -809,151l0 0 -9 9 -711 694 0 0zm-346 -925c18,0 35,18 35,36 0,18 -17,35 -35,35l-533 0 -9 2062c0,18 -18,36 -36,36 -18,0 -35,-18 -35,-36l8 -2088c0,-18 18,-36 36,-36l569 -9 0 0zm-6594 -169l2915 0 0 498 -1547 0c-328,27 -337,169 -337,444l551 0c533,0 1350,27 1350,782 0,631 -719,720 -1155,720l-1777 0 0 -2444 0 0zm2701 169c18,0 36,18 36,36 0,18 -18,35 -36,35l-2354 0 -9 2053c0,18 -18,36 -36,36 -18,0 -35,-18 -35,-36l8 -2088c0,-18 18,-36 36,-36l2390 0 0 0zm-755 1502c18,231 -213,249 -338,249l-551 0 0 -249 0 -249 551 0c125,0 356,18 338,249l0 0zm-5518 764l479 0c320,0 569,-97 765,-257l1137 -1093 0 1350 1013 0 0 -2443 -684 0c-204,-9 -391,53 -551,222l-1182 1119 0 -1341 -977 0 0 2443 0 0zm986 -675c-18,9 -36,9 -53,0 -9,-18 -9,-36 0,-53 373,-347 648,-622 853,-827 249,-249 417,-409 560,-515l0 0c124,-98 186,-142 293,-169 106,-27 222,-27 471,-27 18,0 35,18 35,36 0,18 -17,35 -35,35 -249,0 -365,0 -462,27 -98,18 -151,62 -276,160l0 0c-133,107 -311,267 -551,515 -186,196 -462,463 -835,818l0 0zm-1680 -338c18,-9 36,0 45,18 9,18 0,36 -18,45 -80,35 -151,53 -231,71 -80,17 -160,17 -249,17l0 0 0 0c-355,0 -684,-151 -924,-399 -231,-249 -382,-578 -382,-951l0 0 0 0 0 0 0 0c0,-374 142,-711 382,-951 240,-249 560,-400 924,-400l0 0 0 0 0 0 0 0c98,0 196,9 293,35 18,0 27,9 45,9 80,18 151,54 222,89l0 0c27,18 62,27 89,45 0,0 0,0 0,0 27,17 53,35 80,53 142,98 258,222 346,364 9,18 9,36 -8,45 -18,9 -36,9 -45,-9 -89,-133 -204,-258 -329,-347 -26,-18 -53,-35 -80,-53 0,0 0,0 0,0 -26,-18 -53,-36 -80,-44l0 0c-71,-36 -142,-63 -213,-80 -9,0 -27,-9 -44,-9 -89,-18 -187,-36 -276,-36l0 0 0 0 0 0 0 0c-338,0 -649,142 -871,373 -222,231 -364,551 -364,907l0 0 0 0 0 0 0 0c0,355 142,675 364,906 222,231 533,373 871,373l0 0 0 0c89,0 160,-8 231,-17 80,0 151,-18 222,-54l0 0z"/>
  <path class="fil2" d="M530 5611l-176 0 0 -503 -178 0 0 503 -176 0 0 -647 530 0 0 647zm430 9c-25,0 -48,-4 -68,-12 -20,-9 -40,-24 -60,-46l-8 0c6,35 8,57 8,66l0 201 -173 0 0 -719 141 0 24 64 8 0c32,-49 77,-73 133,-73 56,0 99,23 131,69 32,46 47,109 47,190 0,81 -16,144 -49,191 -33,46 -78,69 -134,69zm-58 -383c-25,0 -43,9 -53,27 -10,18 -16,45 -17,81l0 14c0,43 6,74 18,93 11,19 29,29 54,29 22,0 38,-10 48,-29 10,-19 15,-50 15,-94 0,-43 -5,-74 -15,-93 -10,-18 -27,-28 -50,-28zm818 123c0,82 -22,146 -66,192 -44,45 -105,68 -185,68 -76,0 -136,-23 -181,-70 -45,-47 -68,-110 -68,-190 0,-82 22,-146 66,-191 45,-45 106,-68 186,-68 49,0 93,11 130,32 38,21 67,51 88,90 20,39 30,85 30,137zm-324 -1c0,44 6,76 17,99 12,22 31,34 58,34 27,0 46,-12 57,-34 11,-23 16,-55 16,-99 0,-42 -5,-75 -16,-96 -12,-22 -31,-33 -58,-33 -26,0 -45,11 -57,32 -11,22 -17,54 -17,97zm1110 2c0,73 -23,131 -71,174 -47,44 -114,69 -201,76l0 218 -162 0 0 -218c-85,-9 -152,-35 -201,-79 -49,-44 -73,-101 -73,-171 0,-76 23,-135 69,-178 46,-43 113,-67 203,-73l0 -187 164 0 0 187c87,8 154,34 201,78 48,44 71,102 71,173zm-537 0c0,35 10,64 29,87 19,22 43,34 72,35l0 -244c-28,1 -51,14 -71,38 -20,23 -30,52 -30,84zm365 0c0,-33 -10,-62 -29,-85 -19,-24 -43,-36 -71,-37l0 244c29,-1 53,-13 72,-35 18,-23 28,-51 28,-87zm512 259c-83,0 -148,-22 -194,-66 -46,-45 -70,-108 -70,-190 0,-85 22,-150 65,-195 42,-45 103,-68 183,-68 75,0 134,20 175,59 41,40 61,96 61,170l0 77 -309 0c1,28 12,50 31,66 19,16 46,24 79,24 30,0 58,-3 84,-8 25,-6 53,-16 83,-30l0 125c-27,13 -56,23 -84,28 -29,6 -64,8 -104,8zm-10 -401c-20,0 -37,7 -51,19 -14,13 -22,33 -24,61l148 0c0,-24 -7,-44 -20,-58 -13,-15 -31,-22 -53,-22zm557 401c-82,0 -145,-22 -187,-66 -42,-44 -63,-108 -63,-191 0,-83 22,-147 68,-193 46,-46 111,-69 195,-69 58,0 113,13 164,38l-50 128c-21,-9 -41,-16 -58,-22 -18,-5 -37,-8 -56,-8 -28,0 -49,11 -65,33 -15,22 -23,52 -23,92 0,81 30,121 89,121 51,0 100,-15 146,-45l0 138c-44,30 -98,44 -160,44zm488 0c-82,0 -144,-22 -187,-66 -42,-44 -63,-108 -63,-191 0,-83 23,-147 69,-193 45,-46 110,-69 195,-69 58,0 113,13 164,38l-51 128c-21,-9 -40,-16 -58,-22 -18,-5 -36,-8 -55,-8 -28,0 -50,11 -65,33 -16,22 -23,52 -23,92 0,81 29,121 89,121 50,0 99,-15 146,-45l0 138c-45,30 -99,44 -161,44zm414 -510l0 126c0,7 0,15 0,23 0,9 -2,61 -6,158l200 -307 191 0 0 501 -154 0 0 -135c0,-48 3,-104 7,-169l-200 304 -192 0 0 -501 154 0zm983 250c0,82 -22,146 -66,192 -44,45 -105,68 -185,68 -76,0 -136,-23 -181,-70 -45,-47 -68,-110 -68,-190 0,-82 22,-146 66,-191 44,-45 106,-68 186,-68 49,0 93,11 130,32 38,21 67,51 88,90 20,39 30,85 30,137zm-324 -1c0,44 6,76 17,99 12,22 31,34 58,34 27,0 46,-12 57,-34 11,-23 16,-55 16,-99 0,-42 -5,-75 -16,-96 -12,-22 -31,-33 -58,-33 -26,0 -45,11 -57,32 -11,22 -17,54 -17,97zm596 -249l0 181 137 0 0 -181 173 0 0 501 -173 0 0 -192 -137 0 0 192 -173 0 0 -501 173 0zm757 501l-33 -66 -4 0c-23,29 -47,49 -71,59 -24,11 -56,16 -94,16 -47,0 -84,-14 -112,-42 -27,-28 -40,-68 -40,-120 0,-53 18,-93 56,-119 37,-26 90,-41 161,-44l84 -3 0 -7c0,-41 -21,-61 -61,-61 -37,0 -83,12 -140,37l-50 -115c59,-30 132,-45 221,-45 65,0 115,16 150,48 35,32 53,76 53,134l0 328 -120 0zm-129 -113c21,0 39,-7 54,-20 15,-13 23,-30 23,-51l0 -39 -40 1c-57,2 -86,23 -86,63 0,31 17,46 49,46zm869 113l-173 0 0 -372 -101 0c-10,108 -22,187 -37,237 -15,51 -35,88 -61,110 -26,23 -61,34 -105,34 -31,0 -57,-4 -78,-13l0 -129c9,6 22,8 39,8 13,0 24,-6 32,-20 8,-14 16,-36 22,-66 6,-30 12,-69 17,-116 5,-47 10,-105 15,-174l430 0 0 501zm293 -501l0 181 16 0c87,0 150,12 189,36 39,24 58,64 58,118 0,58 -18,100 -56,127 -37,26 -94,39 -170,39l-210 0 0 -501 173 0zm90 343c0,-17 -4,-30 -14,-38 -10,-7 -26,-11 -49,-11l-27 0 0 94 29 0c41,0 61,-15 61,-45zm435 -343l0 181 137 0 0 -181 173 0 0 501 -173 0 0 -192 -137 0 0 192 -173 0 0 -501 173 0zm908 250c0,82 -22,146 -66,192 -44,45 -105,68 -185,68 -76,0 -136,-23 -181,-70 -45,-47 -68,-110 -68,-190 0,-82 22,-146 66,-191 45,-45 106,-68 186,-68 49,0 93,11 130,32 38,21 67,51 88,90 20,39 30,85 30,137zm-324 -1c0,44 6,76 17,99 12,22 31,34 58,34 27,0 46,-12 57,-34 11,-23 16,-55 16,-99 0,-42 -5,-75 -16,-96 -12,-22 -31,-33 -58,-33 -26,0 -45,11 -57,32 -11,22 -17,54 -17,97zm665 261c-83,0 -148,-22 -194,-66 -46,-45 -69,-108 -69,-190 0,-85 21,-150 64,-195 43,-45 104,-68 183,-68 75,0 134,20 175,59 41,40 62,96 62,170l0 77 -310 0c2,28 12,50 31,66 19,16 46,24 79,24 30,0 58,-3 84,-8 25,-6 53,-16 83,-30l0 125c-27,13 -55,23 -84,28 -29,6 -64,8 -104,8zm-10 -401c-20,0 -37,7 -51,19 -14,13 -22,33 -24,61l148 0c0,-24 -7,-44 -20,-58 -13,-15 -31,-22 -53,-22zm1042 141c0,82 -22,146 -66,192 -44,45 -105,68 -185,68 -76,0 -136,-23 -181,-70 -45,-47 -68,-110 -68,-190 0,-82 22,-146 66,-191 44,-45 106,-68 186,-68 49,0 93,11 130,32 38,21 67,51 88,90 20,39 30,85 30,137zm-324 -1c0,44 6,76 17,99 12,22 31,34 58,34 27,0 46,-12 57,-34 11,-23 16,-55 16,-99 0,-42 -5,-75 -16,-96 -12,-22 -31,-33 -58,-33 -26,0 -45,11 -57,32 -11,22 -17,54 -17,97zm402 -48c0,-50 5,-96 14,-137 9,-41 24,-76 44,-107 21,-30 47,-55 80,-75 33,-21 73,-36 119,-47 46,-11 126,-21 240,-30l16 143c-34,2 -80,7 -139,13 -60,7 -99,13 -118,19 -19,6 -35,15 -47,25 -12,11 -21,24 -26,40 -6,15 -10,36 -11,61l7 0c11,-20 28,-38 53,-51 25,-14 52,-21 83,-21 63,0 111,18 145,55 34,37 51,91 51,161 0,81 -23,145 -68,191 -45,46 -108,69 -189,69 -79,0 -141,-27 -186,-81 -45,-54 -68,-130 -68,-228zm263 181c48,0 72,-38 72,-113 0,-75 -22,-112 -65,-112 -18,0 -36,7 -55,21 -20,13 -33,27 -39,41 0,49 8,88 24,118 15,30 37,45 63,45zm827 -132c0,82 -22,146 -66,192 -44,45 -105,68 -185,68 -76,0 -136,-23 -181,-70 -45,-47 -68,-110 -68,-190 0,-82 22,-146 66,-191 44,-45 106,-68 186,-68 49,0 93,11 130,32 38,21 67,51 88,90 20,39 30,85 30,137zm-324 -1c0,44 6,76 17,99 12,22 31,34 58,34 27,0 46,-12 57,-34 11,-23 16,-55 16,-99 0,-42 -5,-75 -16,-96 -12,-22 -31,-33 -58,-33 -26,0 -45,11 -57,32 -11,22 -17,54 -17,97zm724 261c-25,0 -48,-4 -68,-12 -20,-9 -40,-24 -60,-46l-8 0c6,35 8,57 8,66l0 201 -173 0 0 -719 141 0 24 64 8 0c32,-49 77,-73 133,-73 56,0 99,23 131,69 31,46 47,109 47,190 0,81 -16,144 -49,191 -33,46 -78,69 -134,69zm-58 -383c-25,0 -43,9 -53,27 -10,18 -16,45 -17,81l0 14c0,43 6,74 17,93 12,19 30,29 55,29 22,0 38,-10 48,-29 10,-19 15,-50 15,-94 0,-43 -5,-74 -15,-93 -10,-18 -27,-28 -50,-28zm270 -127l183 0 85 288c4,15 7,33 8,54l4 0c2,-20 5,-38 10,-53l87 -289 177 0 -198 533c-26,68 -57,116 -94,144 -37,28 -85,42 -145,42 -23,0 -46,-3 -71,-8l0 -135c16,3 34,5 54,5 15,0 29,-3 40,-9 12,-6 22,-14 30,-25 9,-11 18,-28 28,-53l-198 -494zm1181 685l-152 0 0 -184 -331 0 0 184 -151 0 0 -312 44 0c26,-44 47,-98 65,-164 17,-65 30,-135 36,-209l414 0 0 373 75 0 0 312zm-248 -312l0 -244 -98 0c-6,40 -13,78 -22,116 -9,38 -22,81 -40,128l160 0zm797 -123c0,82 -22,146 -66,192 -44,45 -106,68 -185,68 -76,0 -137,-23 -182,-70 -45,-47 -67,-110 -67,-190 0,-82 22,-146 66,-191 44,-45 106,-68 186,-68 49,0 92,11 130,32 38,21 67,51 87,90 21,39 31,85 31,137zm-324 -1c0,44 5,76 17,99 11,22 31,34 58,34 27,0 45,-12 57,-34 11,-23 16,-55 16,-99 0,-42 -6,-75 -17,-96 -11,-22 -30,-33 -57,-33 -27,0 -46,11 -57,32 -12,22 -17,54 -17,97zm914 -119c0,29 -8,53 -25,73 -18,19 -41,31 -71,36l0 3c36,4 64,17 83,37 19,21 29,47 29,79 0,96 -78,143 -234,143l-273 0 0 -501 274 0c73,0 127,11 163,32 36,21 54,54 54,98zm-160 211c0,-15 -5,-27 -16,-33 -10,-7 -26,-11 -46,-11l-96 0 0 91 94 0c43,0 64,-15 64,-47zm-12 -188c0,-26 -16,-39 -48,-39l-98 0 0 75 92 0c18,0 32,-4 41,-10 8,-7 13,-16 13,-26zm615 348l-33 -66 -4 0c-23,29 -47,49 -71,59 -24,11 -55,16 -94,16 -47,0 -84,-14 -111,-42 -27,-28 -41,-68 -41,-120 0,-53 19,-93 56,-119 37,-26 91,-41 161,-44l84 -3 0 -7c0,-41 -20,-61 -61,-61 -37,0 -83,12 -139,37l-50 -115c58,-30 132,-45 221,-45 64,0 114,16 149,48 35,32 53,76 53,134l0 328 -120 0zm-128 -113c21,0 39,-7 54,-20 14,-13 22,-30 22,-51l0 -39 -40 1c-57,2 -85,23 -85,63 0,31 16,46 49,46zm539 -388l0 181 137 0 0 -181 173 0 0 501 -173 0 0 -192 -137 0 0 192 -173 0 0 -501 173 0zm583 0l0 126c0,7 0,15 0,23 0,9 -2,61 -6,158l200 -307 192 0 0 501 -154 0 0 -135c0,-48 2,-104 6,-169l-200 304 -192 0 0 -501 154 0zm747 510c-84,0 -148,-22 -195,-66 -46,-45 -69,-108 -69,-190 0,-85 22,-150 64,-195 43,-45 104,-68 183,-68 76,0 134,20 176,59 41,40 61,96 61,170l0 77 -309 0c1,28 11,50 31,66 19,16 45,24 79,24 30,0 58,-3 83,-8 26,-6 54,-16 83,-30l0 125c-27,13 -55,23 -84,28 -28,6 -63,8 -103,8zm-10 -401c-21,0 -38,7 -51,19 -14,13 -22,33 -24,61l148 0c-1,-24 -7,-44 -20,-58 -14,-15 -31,-22 -53,-22zm-11617 1788l-151 0 0 -184 -332 0 0 184 -151 0 0 -312 44 0c26,-44 48,-98 65,-164 18,-65 30,-135 37,-209l414 0 0 373 74 0 0 312zm-247 -312l0 -244 -99 0c-5,40 -12,79 -21,116 -10,38 -23,81 -40,128l160 0zm821 128l-173 0 0 -372 -102 0c-9,108 -22,187 -36,237 -15,51 -35,88 -61,110 -26,23 -61,35 -105,35 -31,0 -57,-5 -79,-14l0 -129c10,6 23,8 39,8 14,0 24,-6 33,-20 8,-14 15,-36 22,-66 6,-30 12,-69 17,-116 5,-47 10,-105 15,-174l430 0 0 501zm232 0l-183 0 129 -190c-26,-14 -47,-34 -62,-60 -15,-26 -23,-56 -23,-90 0,-51 19,-91 58,-119 38,-28 92,-42 161,-42l240 0 0 501 -173 0 0 -173 -51 0 -96 173zm34 -335c0,15 6,27 17,36 11,8 26,12 47,12l49 0 0 -100 -50 0c-20,0 -35,4 -46,13 -11,9 -17,22 -17,39zm968 335l-34 -66 -3 0c-23,29 -47,49 -71,60 -25,10 -56,16 -94,16 -47,0 -85,-15 -112,-43 -27,-28 -40,-68 -40,-119 0,-54 18,-94 55,-120 38,-26 91,-41 162,-44l84 -2 0 -8c0,-41 -21,-61 -62,-61 -36,0 -83,12 -139,37l-50 -114c58,-31 132,-46 221,-46 65,0 114,16 150,48 35,32 52,76 52,134l0 328 -119 0zm-129 -113c21,0 39,-6 54,-20 15,-13 22,-30 22,-51l0 -39 -39 1c-57,2 -86,23 -86,63 0,31 17,46 49,46zm857 -258c0,29 -8,53 -25,73 -17,19 -41,31 -71,36l0 3c36,4 64,17 83,37 19,21 29,47 29,79 0,96 -78,143 -234,143l-273 0 0 -501 274 0c73,0 127,11 163,32 36,21 54,54 54,98zm-160 211c0,-15 -5,-26 -16,-33 -10,-7 -26,-10 -46,-10l-96 0 0 90 94 0c43,0 64,-15 64,-47zm-12 -188c0,-26 -16,-39 -48,-39l-98 0 0 75 92 0c18,0 32,-3 41,-10 9,-7 13,-16 13,-26zm753 -24l-165 0 0 372 -173 0 0 -372 -165 0 0 -129 503 0 0 129zm551 121c0,82 -22,146 -66,192 -44,46 -106,69 -185,69 -76,0 -137,-24 -181,-71 -45,-47 -68,-110 -68,-190 0,-82 22,-145 66,-191 44,-45 106,-68 186,-68 49,0 92,11 130,32 38,21 67,51 88,90 20,39 30,85 30,137zm-324 0c0,43 5,76 17,98 11,23 31,34 58,34 27,0 46,-11 57,-34 11,-22 16,-55 16,-98 0,-43 -5,-75 -17,-97 -11,-22 -30,-33 -57,-33 -27,0 -46,11 -57,32 -12,22 -17,55 -17,98zm651 261c-82,0 -144,-23 -186,-67 -42,-44 -64,-108 -64,-191 0,-83 23,-147 69,-193 46,-46 111,-69 195,-69 58,0 113,13 164,38l-51 128c-21,-9 -40,-16 -58,-22 -17,-5 -36,-8 -55,-8 -28,0 -50,11 -65,33 -15,22 -23,53 -23,92 0,81 30,121 89,121 51,0 99,-15 146,-44l0 137c-45,30 -98,45 -161,45zm503 0c-84,0 -149,-23 -195,-67 -46,-44 -69,-108 -69,-190 0,-84 21,-149 64,-195 43,-45 104,-68 183,-68 76,0 134,20 175,59 41,40 62,97 62,171l0 77 -309 0c1,28 11,50 30,65 20,16 46,24 79,24 31,0 59,-3 84,-8 26,-6 53,-16 83,-30l0 125c-27,14 -55,23 -84,29 -29,5 -63,8 -103,8zm-11 -402c-20,0 -37,7 -51,19 -14,13 -22,33 -24,61l149 0c-1,-24 -8,-44 -21,-58 -13,-15 -31,-22 -53,-22zm630 402c-26,0 -49,-5 -69,-13 -20,-8 -40,-24 -59,-45l-8 0c5,35 8,56 8,65l0 201 -173 0 0 -719 140 0 25 64 8 0c32,-48 76,-73 133,-73 55,0 99,23 130,69 32,46 48,110 48,190 0,81 -17,144 -50,191 -33,46 -77,70 -133,70zm-58 -384c-26,0 -44,9 -54,27 -10,19 -15,45 -16,81l0 14c0,43 5,74 17,93 11,20 29,29 54,29 22,0 38,-9 49,-29 10,-19 15,-50 15,-94 0,-43 -5,-74 -15,-93 -11,-18 -27,-28 -50,-28zm830 3c0,29 -8,53 -25,73 -17,19 -41,31 -71,36l0 3c37,4 64,17 83,37 19,21 29,47 29,79 0,96 -78,143 -234,143l-273 0 0 -501 274 0c73,0 127,11 163,32 37,21 54,54 54,98zm-160 211c0,-15 -5,-26 -16,-33 -10,-7 -26,-10 -46,-10l-96 0 0 90 95 0c42,0 63,-15 63,-47zm-12 -188c0,-26 -16,-39 -47,-39l-99 0 0 75 92 0c18,0 32,-3 41,-10 9,-7 13,-16 13,-26zm442 -153l0 127c0,7 0,14 0,22 0,9 -2,61 -6,158l201 -307 191 0 0 501 -154 0 0 -135c0,-48 2,-104 6,-169l-200 304 -192 0 0 -501 154 0zm733 511c-82,0 -144,-23 -186,-67 -42,-44 -64,-108 -64,-191 0,-83 23,-147 69,-193 46,-46 111,-69 195,-69 58,0 113,13 164,38l-51 128c-21,-9 -40,-16 -58,-22 -17,-5 -36,-8 -55,-8 -28,0 -50,11 -65,33 -15,22 -23,53 -23,92 0,81 30,121 89,121 51,0 99,-15 146,-44l0 137c-45,30 -98,45 -161,45zm587 -10l-33 -66 -3 0c-24,29 -47,49 -71,60 -25,10 -56,16 -94,16 -47,0 -85,-15 -112,-43 -27,-28 -40,-68 -40,-119 0,-54 18,-94 55,-120 37,-26 91,-41 162,-44l83 -2 0 -8c0,-41 -20,-61 -61,-61 -36,0 -83,12 -139,37l-50 -114c58,-31 132,-46 221,-46 64,0 114,16 150,48 35,32 52,76 52,134l0 328 -120 0zm-128 -113c21,0 39,-6 54,-20 15,-13 22,-30 22,-51l0 -39 -40 1c-56,2 -85,23 -85,63 0,31 16,46 49,46z"/>
 </g>
</svg>
